<?xml version="1.0" encoding="UTF-8"?>
<svg width="15px" height="15px" viewBox="0 0 15 15" version="1.1" xmlns="http://www.w3.org/2000/svg" xmlns:xlink="http://www.w3.org/1999/xlink">
    <!-- Generator: Sketch 55.2 (78181) - https://sketchapp.com -->
    <title>external-link</title>
    <desc>Created with Sketch.</desc>
    <g id="Page-1" stroke="none" stroke-width="1" fill="none" fill-rule="evenodd">
        <g id="external-link" fill="#FFFFFF" fill-rule="nonzero">
            <g id="Group">
                <path d="M11.25,8.25 C11.25,7.83578647 11.5857865,7.5 12,7.5 C12.4142135,7.5 12.75,7.83578647 12.75,8.25 L12.75,12.75 C12.75,13.9926407 11.7426407,15 10.5,15 L2.25,15 C1.00735931,15 0,13.9926407 0,12.75 L0,4.5 C0,3.25735935 1.00735931,2.25 2.25,2.25 L6.75,2.25 C7.16421352,2.25 7.5,2.58578644 7.5,3 C7.5,3.41421352 7.16421352,3.75 6.75,3.75 L2.25,3.75 C1.83578644,3.75 1.5,4.08578648 1.5,4.5 L1.5,12.75 C1.5,13.1642135 1.83578644,13.5 2.25,13.5 L10.5,13.5 C10.9142135,13.5 11.25,13.1642135 11.25,12.75 L11.25,8.25 Z" id="Path"></path>
                <path d="M13.5,1.5 L9.75,1.5 C9.33578647,1.5 9,1.16421356 9,0.75 C9,0.335786437 9.33578647,0 9.75,0 L14.25,0 C14.6642135,0 15,0.335786437 15,0.75 L15,5.25 C15,5.66421352 14.6642135,6 14.25,6 C13.8357865,6 13.5,5.66421352 13.5,5.25 L13.5,1.5 Z" id="Path"></path>
                <path d="M6.5303301,9.5303301 C6.23743687,9.82322333 5.76256312,9.82322333 5.4696699,9.5303301 C5.17677667,9.23743688 5.17677667,8.76256313 5.4696699,8.4696699 L13.7196699,0.219669916 C14.0125631,-0.0732233019 14.4874369,-0.0732233019 14.7803301,0.219669916 C15.0732233,0.512563133 15.0732233,0.987436868 14.7803301,1.28033009 L6.5303301,9.5303301 Z" id="Path"></path>
            </g>
        </g>
    </g>
</svg>